Coordinates
version=1
nRows=43
nColumns=12
inDegrees=yes

Units are S.I. units (second, meters, Newtons, ...)
Angles are in degrees

endheader
time	SC_y	SC_z	SC_x	AC_y	AC_z	AC_x	GH_y	GH_z	GH_yy	EL_x	PS_y
       0.0              -28.62           21.7          77.17          65.67         -3.225          12.57         -95.93           22.2         -138.5          106.5          119.1
   0.04183              -28.62          21.69          77.17          65.67         -3.226          12.57         -95.93           22.2         -138.5          106.5          119.1
   0.08366              -28.62          21.69          77.17          65.66         -3.227          12.57         -95.93           22.2         -138.5          106.5          119.1
    0.1255              -28.62          21.69          77.16          65.66         -3.228          12.57         -95.92          22.19         -138.5          106.5          119.1
    0.1673              -28.62          21.68          77.16          65.66         -3.229          12.57         -95.92          22.19         -138.5          106.5          119.1
    0.2092              -28.62          21.68          77.16          65.66         -3.229          12.57         -95.92          22.19         -138.4          106.4          119.0
     0.251              -28.62          21.67          77.16          65.66          -3.23          12.57         -95.92          22.19         -138.4          106.4          119.0
    0.2928              -28.63          21.67          77.15          65.66         -3.231          12.57         -95.92          22.18         -138.4          106.4          119.0
    0.3347              -28.63          21.66          77.15          65.65         -3.233          12.56         -95.92          22.18         -138.4          106.4          119.0
    0.3765              -28.63          21.66          77.14          65.65         -3.234          12.56         -95.92          22.18         -138.4          106.4          119.0
    0.4183              -28.63          21.65          77.14          65.65         -3.235          12.56         -95.92          22.17         -138.4          106.3          118.9
    0.4602              -28.63          21.64          77.14          65.65         -3.236          12.56         -95.92          22.17         -138.4          106.3          118.9
     0.502              -28.63          21.64          77.13          65.64         -3.238          12.56         -95.92          22.16         -138.4          106.3          118.9
    0.5438              -28.63          21.63          77.13          65.64          -3.24          12.55         -95.91          22.16         -138.3          106.2          118.9
    0.5857              -28.64          21.62          77.12          65.64         -3.241          12.55         -95.91          22.16         -138.3          106.2          118.8
    0.6275              -28.64          21.61          77.11          65.63         -3.243          12.55         -95.91          22.15         -138.3          106.2          118.8
    0.6693              -28.64           21.6          77.11          65.63         -3.245          12.54         -95.91          22.14         -138.3          106.1          118.8
    0.7111              -28.64          21.59           77.1          65.62         -3.247          12.54         -95.91          22.14         -138.3          106.1          118.7
     0.753              -28.64          21.58          77.09          65.62          -3.25          12.54         -95.91          22.13         -138.2          106.0          118.7
    0.7948              -28.65          21.57          77.09          65.61         -3.253          12.53          -95.9          22.12         -138.2          106.0          118.6
    0.8366              -28.65          21.55          77.08          65.61         -3.255          12.53          -95.9          22.12         -138.2          105.9          118.6
    0.8785              -28.65          21.54          77.07           65.6         -3.259          12.52          -95.9          22.11         -138.2          105.8          118.5
    0.9203              -28.66          21.52          77.05          65.59         -3.262          12.52         -95.89           22.1         -138.1          105.8          118.5
    0.9621              -28.66           21.5          77.04          65.59         -3.266          12.51         -95.89          22.09         -138.1          105.7          118.4
     1.004              -28.67          21.48          77.03          65.58         -3.271          12.51         -95.89          22.07         -138.0          105.6          118.3
     1.046              -28.67          21.46          77.01          65.57         -3.275           12.5         -95.88          22.06         -138.0          105.5          118.2
     1.088              -28.68          21.43           77.0          65.56         -3.281          12.49         -95.88          22.05         -137.9          105.4          118.1
     1.129              -28.68           21.4          76.98          65.54         -3.287          12.48         -95.87          22.03         -137.9          105.3          118.0
     1.171              -28.69          21.37          76.95          65.53         -3.294          12.47         -95.87          22.01         -137.8          105.1          117.9
     1.213               -28.7          21.33          76.93          65.51         -3.302          12.46         -95.86          21.99         -137.7          105.0          117.8
     1.255              -28.71          21.29           76.9           65.5         -3.311          12.44         -95.85          21.96         -137.7          104.8          117.6
     1.297              -28.72          21.24          76.87          65.47         -3.321          12.43         -95.84          21.93         -137.5          104.6          117.4
     1.339              -28.73          21.18          76.83          65.45         -3.333          12.41         -95.83           21.9         -137.4          104.3          117.2
      1.38              -28.74          21.11          76.79          65.42         -3.347          12.39         -95.82          21.86         -137.3          104.0          117.0
     1.422              -28.76          21.03          76.73          65.39         -3.363          12.36         -95.81          21.82         -137.1          103.7          116.7
     1.464              -28.78          20.94          76.67          65.35         -3.382          12.33         -95.79          21.77         -137.0          103.3          116.3
     1.506               -28.8          20.83           76.6          65.31         -3.405           12.3         -95.77           21.7         -136.7          102.9          115.9
     1.548              -28.83           20.7          76.52          65.25         -3.432          12.26         -95.74          21.63         -136.5          102.3          115.4
      1.59              -28.86          20.54          76.41          65.19         -3.465          12.21         -95.72          21.54         -136.1          101.6          114.8
     1.631               -28.9          20.35          76.28           65.1         -3.506          12.14         -95.68          21.43         -135.7          100.8          114.1
     1.673              -28.95          20.11          76.13           65.0         -3.555          12.07         -95.64          21.29         -135.3          99.78          113.2
     1.715              -29.02          19.81          75.93          64.88         -3.617          11.97         -95.58          21.12         -134.6          98.51          112.1
     1.757              -29.09          19.44          75.68          64.72         -3.695          11.85         -95.51           20.9         -133.9          96.92          110.8
